<svg width="14" height="14" viewBox="0 0 14 14" fill="none" xmlns="http://www.w3.org/2000/svg">
<path fill="none" d="M2.91699 8.7513C2.37339 8.7513 2.10159 8.7513 1.88719 8.66249C1.60133 8.54409 1.37421 8.31697 1.2558 8.0311C1.16699 7.8167 1.16699 7.5449 1.16699 7.0013V3.03464C1.16699 2.38124 1.16699 2.05454 1.29415 1.80498C1.406 1.58546 1.58448 1.40698 1.804 1.29513C2.05357 1.16797 2.38026 1.16797 3.03366 1.16797H7.00033C7.54392 1.16797 7.81572 1.16797 8.03012 1.25678C8.31599 1.37519 8.54311 1.60231 8.66152 1.88817C8.75033 2.10257 8.75033 2.37437 8.75033 2.91797M7.11699 12.8346H10.967C11.6204 12.8346 11.9471 12.8346 12.1966 12.7075C12.4162 12.5956 12.5946 12.4171 12.7065 12.1976C12.8337 11.9481 12.8337 11.6214 12.8337 10.968V7.11797C12.8337 6.46457 12.8337 6.13788 12.7065 5.88831C12.5946 5.66879 12.4162 5.49031 12.1966 5.37846C11.9471 5.2513 11.6204 5.2513 10.967 5.2513H7.11699C6.4636 5.2513 6.1369 5.2513 5.88734 5.37846C5.66781 5.49031 5.48934 5.66879 5.37748 5.88831C5.25033 6.13788 5.25033 6.46457 5.25033 7.11797V10.968C5.25033 11.6214 5.25033 11.9481 5.37748 12.1976C5.48934 12.4171 5.66781 12.5956 5.88734 12.7075C6.1369 12.8346 6.4636 12.8346 7.11699 12.8346Z" stroke="black" stroke-linecap="round" stroke-linejoin="round"/>
</svg>
