<svg width="14" height="14" viewBox="0 0 14 14" fill="none" stroke="none" xmlns="http://www.w3.org/2000/svg">
<path fill="none" d="M6.41669 2.33509H3.96669C2.9866 2.33509 2.49655 2.33509 2.1222 2.52583C1.79292 2.69361 1.5252 2.96133 1.35743 3.29061C1.16669 3.66496 1.16669 4.155 1.16669 5.13509V10.0351C1.16669 11.0152 1.16669 11.5052 1.35743 11.8796C1.5252 12.2089 1.79292 12.4766 2.1222 12.6444C2.49655 12.8351 2.98659 12.8351 3.96669 12.8351H8.86669C9.84678 12.8351 10.3368 12.8351 10.7112 12.6444C11.0405 12.4766 11.3082 12.2089 11.4759 11.8796C11.6667 11.5052 11.6667 11.0152 11.6667 10.0351V7.58509M4.66667 9.33509H5.64349C5.92884 9.33509 6.07152 9.33509 6.20579 9.30286C6.32483 9.27428 6.43863 9.22714 6.54302 9.16317C6.66076 9.09103 6.76164 8.99014 6.96342 8.78836L12.5417 3.21009C13.0249 2.72684 13.0249 1.94334 12.5417 1.46009C12.0584 0.976844 11.2749 0.976844 10.7917 1.46009L5.21341 7.03836C5.01163 7.24014 4.91074 7.34103 4.83859 7.45876C4.77462 7.56315 4.72749 7.67695 4.69891 7.79599C4.66667 7.93026 4.66667 8.07294 4.66667 8.35829V9.33509Z" stroke="white" stroke-linecap="round" stroke-linejoin="round"/>
</svg>
