<svg width="15" height="14" viewBox="0 0 15 14" fill="none" xmlns="http://www.w3.org/2000/svg">
<path d="M7.61202 8.5317C8.01813 8.5317 8.40761 8.37037 8.69478 8.0832C8.98194 7.79604 9.14327 7.40656 9.14327 7.00045C9.14327 6.9556 9.14122 6.91117 9.13739 6.86728L7.47885 8.52582C7.52274 8.52965 7.56704 8.5317 7.61202 8.5317ZM12.6805 2.26396L12.0964 1.68045C12.0759 1.65995 12.0481 1.64844 12.0191 1.64844C11.9901 1.64844 11.9623 1.65995 11.9418 1.68045L10.4472 3.17547C9.62265 2.7541 8.69583 2.54342 7.66671 2.54342C5.03897 2.54342 3.07842 3.91197 1.78506 6.64908C1.73308 6.75916 1.70612 6.87939 1.70612 7.00113C1.70612 7.12287 1.73308 7.2431 1.78506 7.35318C2.30186 8.44174 2.92416 9.31423 3.65196 9.97066L2.20561 11.4165C2.18511 11.437 2.1736 11.4648 2.1736 11.4938C2.1736 11.5228 2.18511 11.5506 2.20561 11.5711L2.78926 12.1547C2.80977 12.1752 2.83758 12.1868 2.86658 12.1868C2.89557 12.1868 2.92338 12.1752 2.94389 12.1547L12.6805 2.41873C12.6906 2.40857 12.6987 2.39651 12.7042 2.38323C12.7097 2.36995 12.7125 2.35572 12.7125 2.34135C12.7125 2.32697 12.7097 2.31274 12.7042 2.29946C12.6987 2.28618 12.6906 2.27412 12.6805 2.26396ZM5.20577 7.00045C5.20573 6.58483 5.31334 6.17629 5.51813 5.81462C5.72291 5.45296 6.01788 5.1505 6.37429 4.93672C6.73071 4.72293 7.13643 4.60511 7.55191 4.59473C7.9674 4.58435 8.37849 4.68176 8.74514 4.87748L8.08042 5.5422C7.81234 5.45637 7.5258 5.44603 7.25223 5.51233C6.97866 5.57862 6.72864 5.71899 6.5296 5.91803C6.33056 6.11707 6.19019 6.36709 6.1239 6.64066C6.0576 6.91422 6.06794 7.20077 6.15378 7.46885L5.48905 8.13357C5.30251 7.78505 5.20519 7.39575 5.20577 7.00045Z" fill="currentColor"/>
<path d="M13.5481 6.64736C13.0668 5.63382 12.494 4.80736 11.8297 4.16797L9.85902 6.13877C10.0251 6.57301 10.062 7.04606 9.96503 7.50077C9.8681 7.95548 9.64158 8.3724 9.31283 8.70116C8.98407 9.02991 8.56716 9.25643 8.11244 9.35336C7.65773 9.45028 7.18468 9.41346 6.75044 9.24734L5.07892 10.9189C5.85439 11.2777 6.7169 11.4571 7.66646 11.4571C10.2942 11.4571 12.2547 10.0886 13.5481 7.35147C13.6001 7.24139 13.6271 7.12116 13.6271 6.99941C13.6271 6.87767 13.6001 6.75744 13.5481 6.64736Z" fill="currentColor" />
</svg>
