<svg width="13" height="10" viewBox="0 0 13 10" fill="none" xmlns="http://www.w3.org/2000/svg">
<path d="M5.08082 5C5.08082 5.40611 5.24215 5.79559 5.52931 6.08276C5.81648 6.36992 6.20596 6.53125 6.61207 6.53125C7.01818 6.53125 7.40766 6.36992 7.69483 6.08276C7.98199 5.79559 8.14332 5.40611 8.14332 5C8.14332 4.59389 7.98199 4.20441 7.69483 3.91724C7.40766 3.63008 7.01818 3.46875 6.61207 3.46875C6.20596 3.46875 5.81648 3.63008 5.52931 3.91724C5.24215 4.20441 5.08082 4.59389 5.08082 5ZM12.5484 4.64727C11.2523 1.91699 9.29313 0.542969 6.66676 0.542969C4.03902 0.542969 2.08121 1.91699 0.785118 4.64863C0.733131 4.75871 0.706169 4.87894 0.706169 5.00068C0.706169 5.12242 0.733131 5.24265 0.785118 5.35273C2.08121 8.08301 4.04039 9.45703 6.66676 9.45703C9.29449 9.45703 11.2523 8.08301 12.5484 5.35137C12.6537 5.12988 12.6537 4.87285 12.5484 4.64727ZM6.61207 7.40625C5.28316 7.40625 4.20582 6.32891 4.20582 5C4.20582 3.67109 5.28316 2.59375 6.61207 2.59375C7.94098 2.59375 9.01832 3.67109 9.01832 5C9.01832 6.32891 7.94098 7.40625 6.61207 7.40625Z" fill="currentColor"/>
</svg>
