<svg width="14" height="14" viewBox="0 0 14 14" fill="none" stroke="currentColor" xmlns="http://www.w3.org/2000/svg">
<g id="home-01">
<path id="Icon" d="M1.75 6.16301C1.75 5.82797 1.75 5.66045 1.79318 5.50617C1.83143 5.36952 1.8943 5.24099 1.97868 5.12689C2.07395 4.99809 2.20618 4.89525 2.47064 4.68955L6.42699 1.61239C6.63193 1.453 6.7344 1.3733 6.84755 1.34266C6.94739 1.31563 7.05262 1.31563 7.15245 1.34266C7.2656 1.3733 7.36807 1.453 7.57301 1.61239L11.5294 4.68955C11.7938 4.89525 11.9261 4.99809 12.0213 5.12689C12.1057 5.24099 12.1686 5.36952 12.2068 5.50617C12.25 5.66045 12.25 5.82797 12.25 6.16301V10.3834C12.25 11.0368 12.25 11.3635 12.1228 11.613C12.011 11.8326 11.8325 12.011 11.613 12.1229C11.3634 12.2501 11.0367 12.2501 10.3833 12.2501H3.61667C2.96327 12.2501 2.63657 12.2501 2.38701 12.1229C2.16749 12.011 1.98901 11.8326 1.87716 11.613C1.75 11.3635 1.75 11.0368 1.75 10.3834V6.16301Z" fill="none" stroke="currentColor" stroke-width="1.16667" stroke-linecap="round" stroke-linejoin="round"/>
</g>
</svg>
