<svg width="14" height="14" viewBox="0 0 14 14" fill="none" xmlns="http://www.w3.org/2000/svg">
<path fill="none" d="M12.25 5.25L12.25 1.75M12.25 1.75H8.75M12.25 1.75L7.58333 6.41667M5.83333 2.91667H4.55C3.56991 2.91667 3.07986 2.91667 2.70552 3.10741C2.37623 3.27518 2.10852 3.5429 1.94074 3.87218C1.75 4.24653 1.75 4.73657 1.75 5.71667V9.45C1.75 10.4301 1.75 10.9201 1.94074 11.2945C2.10852 11.6238 2.37623 11.8915 2.70552 12.0593C3.07986 12.25 3.56991 12.25 4.55 12.25H8.28333C9.26342 12.25 9.75347 12.25 10.1278 12.0593C10.4571 11.8915 10.7248 11.6238 10.8926 11.2945C11.0833 10.9201 11.0833 10.4301 11.0833 9.45V8.16667" stroke="black" stroke-linecap="round" stroke-linejoin="round"/>
</svg>
