<svg viewBox="0 0 176 45" fill="none" xmlns="http://www.w3.org/2000/svg"><path fill-rule="evenodd" clip-rule="evenodd" d="M13.7276 0H10.9831V44.2204H13.7276V0ZM5.49169 3.98256H8.23888V43.0237H5.49169V3.98256ZM0 20.8749H2.74719V39.4391H0V20.8749ZM19.222 3.98256H16.4748V41.8297H19.222V3.98256ZM21.9694 7.96797H24.7166V39.4419H21.9694V7.96797ZM43.6235 22.8426H57.9426C60.4742 22.8426 62.536 24.9044 62.5333 27.4333V28.1546C62.5333 30.6862 60.4715 32.748 57.9399 32.748H46.3237V36.3492H43.6235V22.8426ZM57.9426 30.0478C58.9846 30.0478 59.833 29.1993 59.833 28.1574V27.4333C59.833 26.3913 58.9846 25.5428 57.9426 25.5428H46.3265V30.0478H57.9426ZM176 27.436C176 24.9044 173.938 22.8426 171.407 22.8426H157.088V36.3492H159.788V32.748H171.404C172.446 32.748 173.294 33.5965 173.294 34.6384V36.3492H175.997V34.6384C175.997 33.3726 175.483 32.2284 174.654 31.3965C175.483 30.5646 175.997 29.4204 175.997 28.1546V27.436H176ZM159.791 30.0478V25.5456H171.407C172.449 25.5456 173.297 26.3941 173.297 27.436V28.1574C173.297 29.1993 172.449 30.0478 171.407 30.0478H159.791ZM65.2361 22.8426H67.939V36.3492H65.2361V22.8426ZM84.9586 22.8426H75.2328C72.7012 22.8426 70.6394 24.9017 70.6394 27.436V31.7586C70.6394 34.2902 72.7012 36.352 75.2328 36.352H84.9586C87.4902 36.352 89.552 34.2902 89.552 31.7586V27.436C89.5492 24.9044 87.4902 22.8426 84.9586 22.8426ZM86.849 31.7586C86.849 32.8005 86.0005 33.649 84.9586 33.649H75.2328C74.1909 33.649 73.3424 32.8005 73.3424 31.7586V27.436C73.3424 26.3941 74.1909 25.5456 75.2328 25.5456H84.9586C86.0005 25.5456 86.849 26.3941 86.849 27.436V31.7586ZM132.775 36.3492H113.865V22.8426H132.775V25.5428H116.565V28.2458H132.775V30.9488H116.565V33.649H132.775V36.3492ZM106.569 22.8426H92.2494V36.3492H94.9496V25.5428H106.566C107.608 25.5428 108.456 26.3913 108.456 27.4333V36.3492H111.159V27.436C111.162 24.9044 109.103 22.8426 106.569 22.8426ZM154.387 36.3492H135.478V22.8426H154.387V25.5428H138.178V28.2458H154.387V30.9488H138.178V33.649H154.387V36.3492Z" fill="#EFEDE7"></path></svg>