<svg width="12" height="19" viewBox="0 0 12 19" fill="none" xmlns="http://www.w3.org/2000/svg">
<path d="M2.625 5.2541C2.625 3.80625 3.80215 2.6291 5.25 2.6291H6.5625C8.01035 2.6291 9.1875 3.80625 9.1875 5.2541V5.40176C9.1875 6.2959 8.73223 7.12851 7.98164 7.6084L6.25078 8.71992C5.21719 9.38437 4.59375 10.5287 4.59375 11.7551V11.8125C4.59375 12.5385 5.18027 13.125 5.90625 13.125C6.63223 13.125 7.21875 12.5385 7.21875 11.8125V11.7551C7.21875 11.4187 7.39102 11.107 7.66992 10.9266L9.40078 9.81504C10.902 8.84707 11.8125 7.18594 11.8125 5.39766V5.25C11.8125 2.35019 9.4623 0 6.5625 0H5.25C2.3502 0.00410156 0 2.3543 0 5.2541C0 5.98008 0.586523 6.5666 1.3125 6.5666C2.03848 6.5666 2.625 5.98008 2.625 5.2541ZM5.90625 18.3791C6.34137 18.3791 6.75867 18.2062 7.06635 17.8986C7.37402 17.5909 7.54688 17.1736 7.54688 16.7385C7.54688 16.3034 7.37402 15.8861 7.06635 15.5784C6.75867 15.2707 6.34137 15.0979 5.90625 15.0979C5.47113 15.0979 5.05383 15.2707 4.74615 15.5784C4.43848 15.8861 4.26562 16.3034 4.26562 16.7385C4.26562 17.1736 4.43848 17.5909 4.74615 17.8986C5.05383 18.2062 5.47113 18.3791 5.90625 18.3791Z" fill="currentColor" />
</svg>
