<svg xmlns="http://www.w3.org/2000/svg" viewBox="-16 -16 826 529" width="794" height="497" fill="none">
  <path d="M 12 75 L 12 470 L 13 473 L 19 479 L 26 481 L 32 480 L 74 457 L 117 441 L 156 432 L 177 430 L 178 429 L 191 429 L 192 428 L 247 429 L 274 433 L 300 439 L 316 444 L 343 455 L 366 467 L 387 481 L 394 484 L 404 483 L 435 463 L 473 446 L 511 435 L 540 430 L 560 429 L 561 428 L 616 429 L 655 435 L 675 440 L 713 454 L 732 463 L 761 480 L 769 481 L 776 478 L 779 475 L 781 471 L 781 74 L 774 66 L 743 47 L 708 32 L 683 24 L 662 19 L 638 15 L 617 14 L 616 13 L 563 12 L 562 13 L 547 13 L 546 14 L 538 14 L 511 18 L 475 27 L 441 40 L 414 54 L 403 61 L 399 65 L 396 65 L 383 55 L 353 39 L 315 25 L 280 17 L 258 15 L 257 14 L 231 13 L 230 12 L 195 12 L 194 13 L 166 14 L 139 18 L 112 24 L 81 34 L 64 41 L 37 55 L 19 67 Z
    M 41 85 L 63 72 L 98 57 L 124 49 L 128 49 L 142 45 L 170 41 L 197 40 L 198 39 L 227 39 L 228 40 L 245 40 L 246 41 L 270 43 L 309 52 L 334 61 L 356 72 L 383 91 L 383 443 L 382 444 L 380 444 L 373 439 L 353 430 L 351 428 L 316 415 L 280 406 L 261 403 L 240 402 L 239 401 L 186 401 L 185 402 L 156 404 L 135 408 L 92 420 L 60 433 L 42 443 L 39 442 L 39 87 Z
    M 415 88 L 434 75 L 449 67 L 468 59 L 492 51 L 528 43 L 553 41 L 554 40 L 569 40 L 570 39 L 600 39 L 601 40 L 627 41 L 668 48 L 698 57 L 718 65 L 738 75 L 754 85 L 755 87 L 755 442 L 754 443 L 751 443 L 731 432 L 712 424 L 675 412 L 636 404 L 607 402 L 606 401 L 554 401 L 553 402 L 525 404 L 499 409 L 462 420 L 440 429 L 415 443 L 411 442 L 411 92 Z" fill="#000000" fill-rule="evenodd" stroke="#000000" stroke-width="30" stroke-linejoin="round"/>
</svg>
