<svg width="12" height="13" viewBox="0 0 12 13" fill="none" xmlns="http://www.w3.org/2000/svg">
<path d="M6.69288 0.30875C6.51522 0.11375 6.26255 -2.50792e-07 6.00198 -2.62182e-07C5.7414 -2.73572e-07 5.49268 0.109688 5.31107 0.30875L0.257562 5.83375C-0.101711 6.22781 -0.0819705 6.84125 0.297043 7.21094C0.676056 7.58062 1.27616 7.56031 1.63543 7.17031L5.05444 3.43281L5.05444 6.825L5.05444 12.025C5.05444 12.5653 5.47688 13 6.00197 13C6.52706 13 6.94951 12.5653 6.94951 12.025L6.94951 6.825L6.94951 3.43281L10.3646 7.16625C10.7238 7.56031 11.3239 7.57656 11.703 7.20688C12.082 6.83719 12.1017 6.21969 11.7424 5.82969L6.68893 0.304687L6.69288 0.30875Z" fill="currentColor" />
</svg>
