<svg width="13" height="13" viewBox="0 0 13 13" fill="none" xmlns="http://www.w3.org/2000/svg">
<path fill-rule="evenodd" clip-rule="evenodd" d="M1.40675 1.47542C1.48808 1.32208 1.62475 1.21542 1.89475 1.17875C2.18808 1.13875 2.60942 1.19208 3.15075 1.38542C4.22608 1.76942 5.59742 2.64208 6.98142 3.94142C7.25008 4.19342 7.50942 4.45342 7.75208 4.71208C7.85782 4.82507 8.0041 4.89142 8.15876 4.89654C8.31341 4.90167 8.46377 4.84515 8.57675 4.73942C8.68973 4.63368 8.75609 4.4874 8.76121 4.33275C8.76634 4.17809 8.70982 4.02773 8.60408 3.91475C8.33844 3.63142 8.06363 3.35683 7.78008 3.09142C6.32208 1.72208 4.81675 0.740751 3.54208 0.286751C2.90875 0.0600846 2.28675 -0.0512489 1.73808 0.0227512C1.16608 0.100084 0.663418 0.385418 0.376084 0.929418C0.126751 1.39675 0.0940845 1.95542 0.175418 2.50942C0.257418 3.07075 0.464751 3.68408 0.762084 4.31208C0.828389 4.45194 0.947535 4.55973 1.09331 4.61174C1.23909 4.66375 1.39956 4.65572 1.53942 4.58942C1.67928 4.52311 1.78707 4.40397 1.83908 4.25819C1.89109 4.11241 1.88306 3.95194 1.81675 3.81208C1.55142 3.25342 1.39008 2.75342 1.33008 2.34008C1.26808 1.92008 1.31742 1.64275 1.40542 1.47808L1.40675 1.47542ZM8.27209 1.81675C8.83075 1.55142 9.33075 1.39008 9.74408 1.33008C10.1641 1.26808 10.4414 1.31742 10.6061 1.40542L10.6088 1.40675C10.7621 1.48808 10.8688 1.62475 10.9054 1.89475C10.9454 2.18808 10.8921 2.60942 10.6988 3.15075C10.3154 4.22608 9.44208 5.59742 8.14275 6.98142C7.89075 7.25008 7.63075 7.50942 7.37208 7.75208C7.2591 7.85782 7.19275 8.0041 7.18762 8.15876C7.1825 8.31341 7.23902 8.46377 7.34475 8.57675C7.45048 8.68973 7.59677 8.75609 7.75142 8.76121C7.90608 8.76634 8.05644 8.70982 8.16942 8.60408C8.44742 8.34408 8.72475 8.06608 8.99275 7.78008C10.3621 6.32208 11.3434 4.81675 11.7974 3.54208C12.0241 2.90875 12.1361 2.28675 12.0614 1.73808C11.9841 1.16608 11.6988 0.663418 11.1548 0.376084C10.6874 0.126751 10.1288 0.0940845 9.57475 0.175418C9.01342 0.257418 8.40008 0.464751 7.77208 0.762751C7.6342 0.830197 7.52845 0.949275 7.47777 1.09417C7.42709 1.23906 7.43557 1.39809 7.50136 1.53678C7.56715 1.67546 7.68495 1.78263 7.82923 1.83504C7.9735 1.88745 8.13262 1.88088 8.27209 1.81675ZM4.73275 3.49208C4.84031 3.60323 4.89932 3.75253 4.89682 3.90718C4.89432 4.06182 4.83051 4.20914 4.71942 4.31675C4.45542 4.57275 4.19342 4.83408 3.94208 5.10208C2.64208 6.48608 1.76875 7.85808 1.38542 8.93342C1.19208 9.47475 1.13875 9.89675 1.17875 10.1894C1.21542 10.4594 1.32275 10.5961 1.47542 10.6774C1.64608 10.7668 1.92742 10.8161 2.34875 10.7548C2.76475 10.6934 3.26742 10.5321 3.83075 10.2668C3.97055 10.2018 4.13038 10.1949 4.27529 10.2474C4.42021 10.2999 4.53844 10.4077 4.60415 10.5471C4.66987 10.6866 4.67771 10.8464 4.62599 10.9916C4.57426 11.1368 4.46716 11.2556 4.32808 11.3221C3.69608 11.6194 3.08142 11.8268 2.51742 11.9088C1.96008 11.9901 1.40142 11.9568 0.930751 11.7088C0.386085 11.4214 0.100084 10.9181 0.0227512 10.3461C-0.0512489 9.79742 0.0600846 9.17608 0.286751 8.54142C0.740751 7.26742 1.72208 5.76142 3.09142 4.30408C3.35942 4.01808 3.63475 3.74275 3.90808 3.47875C4.01923 3.37119 4.16853 3.31218 4.32318 3.31468C4.47782 3.31718 4.62514 3.38099 4.73275 3.49208ZM6.91275 6.04675C6.91596 5.93096 6.89593 5.8157 6.85384 5.70778C6.81175 5.59987 6.74845 5.50148 6.66768 5.41845C6.58692 5.33541 6.49033 5.26941 6.38362 5.22434C6.27691 5.17927 6.16225 5.15605 6.04642 5.15605C5.93058 5.15605 5.81592 5.17927 5.70921 5.22434C5.60251 5.26941 5.50592 5.33541 5.42515 5.41845C5.34439 5.50148 5.28109 5.59987 5.239 5.70778C5.1969 5.8157 5.17687 5.93096 5.18008 6.04675C5.18008 6.27661 5.27139 6.49705 5.43393 6.65958C5.59646 6.82211 5.8169 6.91342 6.04675 6.91342C6.27661 6.91342 6.49705 6.82211 6.65958 6.65958C6.82211 6.49705 6.91342 6.27661 6.91342 6.04675H6.91275ZM3.49208 7.36008C3.60323 7.25253 3.75253 7.19351 3.90718 7.19601C4.06182 7.19851 4.20914 7.26232 4.31675 7.37342C4.57275 7.63742 4.83408 7.89942 5.10208 8.15075C6.48608 9.45075 7.85808 10.3241 8.93342 10.7074C9.47475 10.9008 9.89675 10.9541 10.1894 10.9141C10.4594 10.8774 10.5961 10.7701 10.6768 10.6174C10.7668 10.4468 10.8161 10.1654 10.7541 9.74408C10.6941 9.32808 10.5321 8.82542 10.2668 8.26142C10.205 8.12208 10.2002 7.9641 10.2535 7.82129C10.3067 7.67849 10.4138 7.56219 10.5517 7.49729C10.6896 7.43239 10.8474 7.42404 10.9914 7.47403C11.1354 7.52401 11.2541 7.62836 11.3221 7.76475C11.6194 8.39608 11.8268 9.01142 11.9088 9.57542C11.9901 10.1321 11.9568 10.6914 11.7088 11.1621C11.4214 11.7068 10.9181 11.9928 10.3461 12.0701C9.79742 12.1441 9.17608 12.0328 8.54142 11.8061C7.26742 11.3521 5.76142 10.3708 4.30408 9.00142C4.01808 8.73342 3.74275 8.45808 3.47875 8.18475C3.37119 8.07361 3.31218 7.9243 3.31468 7.76966C3.31718 7.61501 3.38099 7.46769 3.49208 7.36008Z" fill="currentColor"/>
</svg>
