<svg width="16" height="7" viewBox="0 0 16 7" fill="none" xmlns="http://www.w3.org/2000/svg">
<path d="M9.27585 1.28782L3.67585 6.78782C3.5356 6.92562 3.34685 7.00283 3.15023 7.00283C2.95361 7.00283 2.76485 6.92562 2.6246 6.78782L0.224602 4.43095C0.154304 4.36192 0.09829 4.27972 0.059758 4.18905C0.021226 4.09838 0.000930884 4.001 3.13161e-05 3.90248C-0.00178544 3.70352 0.0755105 3.51198 0.214915 3.37001C0.283941 3.29971 0.366137 3.24369 0.456811 3.20516C0.547485 3.16663 0.64486 3.14634 0.743377 3.14544C0.942342 3.14362 1.13388 3.22092 1.27585 3.36032L3.15085 5.20157L8.22523 0.21782C8.36712 0.0784159 8.55858 0.00108677 8.75748 0.00284492C8.95639 0.00460307 9.14645 0.0853041 9.28585 0.227195C9.42526 0.369086 9.50258 0.560543 9.50083 0.759449C9.49907 0.958355 9.41837 1.14842 9.27648 1.28782H9.27585ZM15.2852 0.22532C15.2162 0.154782 15.1339 0.0985705 15.043 0.0599099C14.9522 0.0212493 14.8546 0.000900181 14.7559 2.91963e-05C14.6572 -0.000841789 14.5593 0.0177826 14.4678 0.0548345C14.3763 0.0918863 14.293 0.146637 14.2227 0.215945L9.15023 5.20157L8.65773 4.71782C8.51584 4.57842 8.32438 4.50109 8.12547 4.50284C7.92657 4.5046 7.73651 4.5853 7.5971 4.72719C7.4577 4.86909 7.38037 5.06054 7.38213 5.25945C7.38389 5.45835 7.46459 5.64842 7.60648 5.78782L8.6246 6.78782C8.76485 6.92562 8.95361 7.00283 9.15023 7.00283C9.34684 7.00283 9.5356 6.92562 9.67585 6.78782L15.2759 1.28782C15.3461 1.21879 15.4021 1.13661 15.4406 1.04595C15.4791 0.95529 15.4993 0.857937 15.5002 0.759449C15.5011 0.660961 15.4825 0.563265 15.4457 0.471941C15.4088 0.380617 15.3543 0.297452 15.2852 0.227195V0.22532Z" fill="currentColor"/>
</svg>
