<svg width="13" height="14" viewBox="0 0 13 14" fill="none" xmlns="http://www.w3.org/2000/svg">
<path d="M8.17558 3.42852L3.84225 7.76186C3.57703 8.02707 3.42804 8.38679 3.42804 8.76186C3.42804 9.13693 3.57703 9.49664 3.84225 9.76186C4.10747 10.0271 4.46718 10.1761 4.84225 10.1761C5.21732 10.1761 5.57703 10.0271 5.84225 9.76186L10.1756 5.42852C10.706 4.89809 11.004 4.17867 11.004 3.42852C11.004 2.67838 10.706 1.95896 10.1756 1.42852C9.64515 0.898092 8.92573 0.600098 8.17558 0.600098C7.42544 0.600098 6.70602 0.898092 6.17558 1.42852L1.84225 5.76186C1.0466 6.55751 0.599609 7.63664 0.599609 8.76186C0.599609 9.88708 1.0466 10.9662 1.84225 11.7619C2.6379 12.5575 3.71703 13.0045 4.84225 13.0045C5.96747 13.0045 7.0466 12.5575 7.84225 11.7619L12.1756 7.42852" fill="none" stroke="currentColor" stroke-width="1.2" stroke-linecap="round" stroke-linejoin="round"/>
</svg>
