<svg id="icon" viewBox="3 3 18 18" xmlns="http://www.w3.org/2000/svg"><path id="image" clip-rule="evenodd" d="m8 4c-2.209 0-4 1.791-4 4v8c0 2.209 1.791 4 4 4h8c2.209 0 4-1.791 4-4v-8c0-2.209-1.791-4-4-4zm-2 4c0-1.105.895-2 2-2h8c1.105 0 2 .895 2 2v8c0 .951-.664 1.747-1.553 1.95l-4.459-5.675c-.633-.805-1.6-1.275-2.624-1.275-.796 0-1.567.285-2.171.803l-1.193 1.023zm0 7.46v.54c0 1.105.895 2 2 2h5.943l-3.527-4.489c-.254-.323-.642-.511-1.052-.511-.319 0-.628.114-.87.322zm10-5.96c0 .828-.672 1.5-1.5 1.5s-1.5-.672-1.5-1.5.672-1.5 1.5-1.5 1.5.672 1.5 1.5z" fill-rule="evenodd" fill="currentColor"/></svg>