<svg width="14" height="14" viewBox="0 0 14 14" fill="none" xmlns="http://www.w3.org/2000/svg">
<path fill-rule="evenodd" clip-rule="evenodd" d="M1.16667 5.262C1.16702 4.17596 1.5986 3.1345 2.36655 2.36655C3.1345 1.5986 4.17596 1.16702 5.262 1.16667C6.34793 1.1672 7.38921 1.59886 8.15702 2.36679C8.92482 3.13472 9.35631 4.17607 9.35667 5.262C9.35667 5.64067 9.30733 5.99867 9.21067 6.33667C9.18966 6.41034 9.18336 6.48743 9.19214 6.56353C9.20092 6.63964 9.22461 6.71327 9.26184 6.78022C9.29908 6.84717 9.34914 6.90613 9.40916 6.95373C9.46918 7.00134 9.538 7.03666 9.61167 7.05767C9.68534 7.07868 9.76243 7.08497 9.83853 7.07619C9.91464 7.06741 9.98827 7.04373 10.0552 7.00649C10.1904 6.93129 10.2902 6.80545 10.3327 6.65667C10.4607 6.21 10.5233 5.74333 10.5233 5.262C10.523 3.86666 9.96857 2.52855 8.98198 1.54183C7.99538 0.555109 6.65735 0.000530169 5.262 0C3.86654 0.00035346 2.52833 0.554855 1.54159 1.54159C0.554855 2.52833 0.00035346 3.86654 0 5.262C0.000530169 6.65735 0.555109 7.99538 1.54183 8.98198C2.52855 9.96857 3.86666 10.523 5.262 10.5233C6.53 10.5233 7.698 10.07 8.60733 9.322L12.3287 13.154C12.4365 13.2649 12.584 13.3285 12.7388 13.3307C12.8935 13.3329 13.0427 13.2735 13.1537 13.1657C13.2646 13.0578 13.3282 12.9103 13.3304 12.7556C13.3326 12.6009 13.2732 12.4516 13.1653 12.3407L9.04867 8.102C8.99425 8.046 8.92914 8.00149 8.85719 7.97112C8.78525 7.94075 8.70795 7.92514 8.62986 7.9252C8.55177 7.92526 8.47449 7.941 8.4026 7.97148C8.3307 8.00197 8.26567 8.04658 8.21133 8.10267C7.8291 8.49899 7.37096 8.81428 6.86425 9.02973C6.35753 9.24517 5.81262 9.35636 5.262 9.35667C4.17607 9.35631 3.13472 8.92482 2.36679 8.15702C1.59886 7.38921 1.1672 6.34793 1.16667 5.262ZM5.262 4.32533C5.38487 4.32533 5.50654 4.34954 5.62006 4.39656C5.73358 4.44358 5.83673 4.5125 5.92362 4.59938C6.0105 4.68627 6.07942 4.78942 6.12644 4.90294C6.17347 5.01646 6.19767 5.13813 6.19767 5.261C6.19767 5.38387 6.17347 5.50554 6.12644 5.61906C6.07942 5.73258 6.0105 5.83573 5.92362 5.92262C5.83673 6.0095 5.73358 6.07842 5.62006 6.12544C5.50654 6.17246 5.38487 6.19667 5.262 6.19667C5.01385 6.19667 4.77586 6.09809 4.60038 5.92262C4.42491 5.74715 4.32633 5.50915 4.32633 5.261C4.32633 5.01285 4.42491 4.77486 4.60038 4.59938C4.77586 4.42391 5.01385 4.32533 5.262 4.32533Z" fill="currentColor" />
</svg>
