<svg width="11" height="14" viewBox="0 0 11 14" fill="none" xmlns="http://www.w3.org/2000/svg">
<path d="M10 5.33333C10.1768 5.33333 10.3464 5.40357 10.4714 5.5286C10.5964 5.65362 10.6667 5.82319 10.6667 6C10.6668 7.29901 10.1928 8.55342 9.33375 9.52778C8.47465 10.5021 7.28947 11.1295 6.00067 11.292L6 12.6667H8C8.17681 12.6667 8.34638 12.7369 8.47141 12.8619C8.59643 12.987 8.66667 13.1565 8.66667 13.3333C8.66667 13.5101 8.59643 13.6797 8.47141 13.8047C8.34638 13.9298 8.17681 14 8 14H2.66667C2.48986 14 2.32029 13.9298 2.19526 13.8047C2.07024 13.6797 2 13.5101 2 13.3333C2 13.1565 2.07024 12.987 2.19526 12.8619C2.32029 12.7369 2.48986 12.6667 2.66667 12.6667H4.66667V11.292C3.37774 11.1296 2.19241 10.5024 1.33317 9.52798C0.473931 8.5536 -0.000121129 7.29911 2.32162e-08 6C2.32162e-08 5.82319 0.070238 5.65362 0.195262 5.5286C0.320287 5.40357 0.489856 5.33333 0.666667 5.33333C0.843478 5.33333 1.01305 5.40357 1.13807 5.5286C1.2631 5.65362 1.33333 5.82319 1.33333 6C1.33333 7.06087 1.75476 8.07828 2.50491 8.82843C3.25505 9.57857 4.27247 10 5.33333 10C6.3942 10 7.41162 9.57857 8.16176 8.82843C8.91191 8.07828 9.33333 7.06087 9.33333 6C9.33333 5.82319 9.40357 5.65362 9.52859 5.5286C9.65362 5.40357 9.82319 5.33333 10 5.33333ZM5.33333 0C6.04058 0 6.71885 0.280952 7.21895 0.781049C7.71905 1.28115 8 1.95942 8 2.66667V6C8 6.70724 7.71905 7.38552 7.21895 7.88562C6.71885 8.38572 6.04058 8.66667 5.33333 8.66667C4.62609 8.66667 3.94781 8.38572 3.44772 7.88562C2.94762 7.38552 2.66667 6.70724 2.66667 6V2.66667C2.66667 1.95942 2.94762 1.28115 3.44772 0.781049C3.94781 0.280952 4.62609 0 5.33333 0Z" fill="currentColor" />
</svg>
