<?xml version="1.0" standalone="no"?>
<!DOCTYPE svg PUBLIC "-//W3C//DTD SVG 20010904//EN"
 "http://www.w3.org/TR/2001/REC-SVG-20010904/DTD/svg10.dtd">
<svg version="1.0" xmlns="http://www.w3.org/2000/svg"
 width="637.957071pt" height="586.599596pt" viewBox="-6 -6 649.957071 598.599596"
 preserveAspectRatio="xMidYMid meet">
<metadata>
Created by potrace 1.16, written by Peter Selinger 2001-2019
</metadata>
<g transform="translate(-28.532181,615.599596) scale(0.100000,-0.100000)"
fill="#000000" stroke="#000000" stroke-width="100" stroke-linejoin="round">
<path d="M3565 6153 c-216 -29 -468 -121 -655 -241 -90 -57 -240 -185 -311
-264 -129 -144 -264 -371 -314 -528 -10 -30 -21 -59 -25 -65 -4 -5 -10 -21
-13 -35 -3 -14 -17 -80 -31 -147 -39 -181 -37 -370 4 -563 18 -86 48 -187 76
-257 45 -112 125 -266 144 -278 35 -21 -22 -25 -399 -25 -372 0 -420 -2 -516
-20 -186 -36 -306 -80 -470 -173 -281 -158 -474 -367 -619 -668 -118 -245
-151 -392 -151 -659 1 -164 4 -199 28 -311 56 -254 184 -500 357 -683 67 -72
81 -91 75 -109 -4 -12 -17 -69 -30 -127 -13 -58 -30 -132 -39 -165 -77 -301
-88 -373 -65 -432 25 -67 99 -113 182 -113 53 0 125 31 277 118 25 14 63 35
85 47 75 39 180 98 225 125 42 25 143 82 215 119 26 14 121 16 800 17 461 1
790 6 820 12 202 40 315 76 454 146 314 157 546 392 696 701 136 284 182 580
137 887 -19 126 -65 294 -98 357 -8 14 -14 30 -14 34 0 5 -22 48 -49 97 -27
49 -46 91 -43 94 9 10 987 7 998 -3 5 -5 63 -37 129 -71 66 -35 125 -66 130
-70 6 -4 48 -27 95 -52 100 -54 155 -84 230 -126 157 -88 224 -117 275 -117
65 0 122 29 157 80 22 33 27 51 28 102 0 34 -4 73 -10 87 -5 14 -19 72 -30
128 -11 57 -29 139 -39 183 -38 159 -71 310 -71 325 0 9 31 47 68 85 183 187
309 417 379 690 27 104 28 121 28 330 0 216 -1 222 -33 349 -128 499 -448 881
-905 1080 -58 25 -156 60 -218 78 l-114 32 -900 2 c-495 1 -913 0 -930 -3z
m1801 -218 c49 -9 105 -21 124 -27 252 -80 411 -177 590 -358 252 -255 394
-591 393 -930 0 -340 -127 -644 -376 -894 -54 -55 -102 -108 -108 -117 -15
-29 -10 -90 17 -210 14 -63 32 -143 39 -179 7 -36 20 -90 29 -120 24 -85 58
-262 51 -268 -3 -4 -14 -1 -23 4 -9 6 -51 29 -92 51 -41 23 -212 116 -379 207
l-304 166 -600 0 -600 0 -96 93 c-109 106 -221 183 -368 256 -117 58 -182 81
-314 113 -82 19 -130 23 -373 28 l-280 5 -48 70 c-114 165 -198 354 -234 530
-26 124 -26 376 0 494 25 114 88 290 138 381 211 387 579 645 1008 709 30 5
429 9 886 10 707 1 845 -1 920 -14z m-2166 -2395 c241 -37 453 -131 635 -282
262 -216 429 -512 474 -841 91 -653 -333 -1279 -984 -1454 l-100 -27 -825 -5
-825 -6 -220 -124 c-121 -68 -271 -152 -334 -185 -62 -34 -136 -73 -162 -87
-27 -15 -51 -24 -54 -20 -2 4 4 36 15 72 10 35 30 118 45 184 15 66 42 183 61
261 19 77 34 151 34 163 0 36 -16 58 -110 150 -182 179 -305 419 -350 687 -71
414 63 825 370 1135 201 203 449 329 735 374 101 16 1495 20 1595 5z"/>
<path d="M3485 4781 c-99 -32 -157 -109 -158 -210 -1 -123 90 -211 218 -211
91 0 154 39 196 122 31 60 24 148 -16 208 -50 75 -161 117 -240 91z"/>
<path d="M4348 4776 c-21 -8 -49 -21 -63 -30 -73 -48 -108 -184 -66 -262 48
-91 100 -124 196 -124 100 0 168 48 202 140 42 113 -4 218 -117 269 -52 24
-99 26 -152 7z"/>
<path d="M5199 4763 c-79 -41 -119 -105 -119 -193 0 -57 4 -72 33 -115 42 -66
99 -95 182 -95 43 0 70 6 95 21 53 32 88 69 95 100 4 16 11 31 16 34 16 10 10
91 -10 137 -26 59 -58 93 -111 117 -63 28 -116 27 -181 -6z"/>
<path d="M1927 2782 c-48 -4 -111 -63 -121 -112 -3 -18 -17 -57 -31 -86 -14
-29 -25 -56 -25 -60 0 -4 -9 -26 -19 -48 -11 -23 -40 -90 -64 -151 -25 -60
-93 -227 -153 -370 -121 -293 -129 -329 -81 -371 52 -45 143 -23 168 40 7 17
22 54 34 81 12 28 26 64 29 82 4 17 13 36 19 42 16 12 535 17 547 5 5 -5 23
-45 40 -89 54 -140 62 -155 96 -176 47 -29 113 -8 140 43 16 30 19 89 5 103
-5 6 -70 163 -145 350 -74 187 -149 374 -167 415 -17 41 -47 113 -66 160 -19
47 -39 91 -45 98 -28 33 -93 51 -161 44z m110 -440 c34 -86 73 -184 87 -217
14 -32 23 -62 21 -65 -6 -10 -354 -10 -360 -1 -4 7 52 150 120 306 7 17 19 48
26 70 14 42 27 65 38 65 3 0 34 -71 68 -158z"/>
<path d="M2882 2776 c-17 -9 -37 -27 -42 -41 -6 -16 -10 -234 -10 -570 l0
-543 26 -31 c35 -42 97 -44 143 -5 l31 26 0 562 0 563 -24 22 c-30 28 -82 35
-124 17z"/>
</g>
</svg>
