<svg width="20" height="16" viewBox="0 0 20 16" fill="none" xmlns="http://www.w3.org/2000/svg">
<path d="M13.0877 4.80881C13.0877 4.13716 13.0877 3.80134 13.0138 3.52581C12.8135 2.77811 12.2295 2.19409 11.4818 1.99375C11.2063 1.91992 10.8704 1.91992 10.1988 1.91992C9.52714 1.91992 9.19132 1.91992 8.91579 1.99375C8.16809 2.19409 7.58407 2.77811 7.38372 3.52581C7.3099 3.80134 7.3099 4.13716 7.3099 4.80881M5.28767 14.9199H15.1099C15.9189 14.9199 16.3233 14.9199 16.6323 14.7625C16.9041 14.624 17.1251 14.403 17.2636 14.1312C17.421 13.8223 17.421 13.4178 17.421 12.6088V7.11992C17.421 6.31096 17.421 5.90647 17.2636 5.59749C17.1251 5.3257 16.9041 5.10473 16.6323 4.96625C16.3233 4.80881 15.9189 4.80881 15.1099 4.80881H5.28767C4.47871 4.80881 4.07423 4.80881 3.76524 4.96625C3.49345 5.10473 3.27248 5.3257 3.134 5.59749C2.97656 5.90647 2.97656 6.31096 2.97656 7.11992V12.6088C2.97656 13.4178 2.97656 13.8223 3.134 14.1312C3.27248 14.403 3.49345 14.624 3.76524 14.7625C4.07423 14.9199 4.47871 14.9199 5.28767 14.9199Z" fill="none" stroke="currentColor" stroke-width="1.5" stroke-linecap="round" stroke-linejoin="round"/>
</svg>
