<svg width="20" height="16" viewBox="0 0 20 16" fill="none" xmlns="http://www.w3.org/2000/svg">
<path d="M8.79922 10.0199L6.64654 12.1995C6.34627 12.5035 6.19613 12.6555 6.06709 12.6663C5.95513 12.6756 5.84551 12.6306 5.77239 12.5453C5.68811 12.447 5.68811 12.2333 5.68811 11.806V10.7141C5.68811 10.3307 5.37417 10.0533 4.99486 9.99775C4.07684 9.86328 3.35586 9.1423 3.22139 8.22428C3.19922 8.07291 3.19922 7.89228 3.19922 7.53103V4.27992C3.19922 3.10381 3.19922 2.51576 3.42811 2.06654C3.62944 1.6714 3.9507 1.35014 4.34584 1.14881C4.79505 0.919922 5.38311 0.919922 6.55922 0.919922H11.7392C12.9153 0.919922 13.5034 0.919922 13.9526 1.14881C14.3477 1.35014 14.669 1.6714 14.8703 2.06654C15.0992 2.51576 15.0992 3.10381 15.0992 4.27992V7.21992M15.0992 14.9199L13.5757 13.8607C13.3616 13.7118 13.2545 13.6374 13.138 13.5846C13.0345 13.5378 12.9258 13.5037 12.8141 13.4831C12.6883 13.4599 12.5579 13.4599 12.2971 13.4599H11.0392C10.2551 13.4599 9.86311 13.4599 9.56363 13.3073C9.30021 13.1731 9.08603 12.9589 8.95181 12.6955C8.79922 12.396 8.79922 12.004 8.79922 11.2199V9.45992C8.79922 8.67585 8.79922 8.28381 8.95181 7.98434C9.08603 7.72091 9.30021 7.50674 9.56363 7.37251C9.86311 7.21992 10.2551 7.21992 11.0392 7.21992H14.9592C15.7433 7.21992 16.1353 7.21992 16.4348 7.37251C16.6982 7.50674 16.9124 7.72091 17.0466 7.98434C17.1992 8.28381 17.1992 8.67585 17.1992 9.45992V11.3599C17.1992 12.0122 17.1992 12.3384 17.0926 12.5957C16.9506 12.9387 16.678 13.2113 16.335 13.3534C16.0777 13.4599 15.7515 13.4599 15.0992 13.4599V14.9199Z" fill="none" stroke="currentColor" stroke-width="1.5" stroke-linecap="round" stroke-linejoin="round"/>
</svg>
