<svg width="16" height="14" viewBox="0 0 16 14" fill="none" xmlns="http://www.w3.org/2000/svg">
<path d="M1.875 11.5938C1.875 11.9574 2.16758 12.25 2.53125 12.25C2.89492 12.25 3.1875 11.9574 3.1875 11.5938V2.40625C3.1875 2.04258 2.89492 1.75 2.53125 1.75C2.16758 1.75 1.875 2.04258 1.875 2.40625V11.5938ZM5.58281 6.52148C5.45156 6.64453 5.375 6.81953 5.375 7C5.375 7.18047 5.44883 7.35273 5.58281 7.47852L9.30156 10.9785C9.5668 11.2273 9.97969 11.2137 10.2285 10.9512C10.4773 10.6887 10.4637 10.273 10.2012 10.0242L7.68555 7.65625H9.96875H13.4688C13.8324 7.65625 14.125 7.36367 14.125 7C14.125 6.63633 13.8324 6.34375 13.4688 6.34375H9.96875H7.68555L10.1984 3.97852C10.4637 3.72969 10.4746 3.31406 10.2258 3.05156C9.97695 2.78906 9.56133 2.77539 9.29883 3.02422L5.58008 6.52422L5.58281 6.52148Z" fill="currentColor"/>
</svg>
