<svg width="20" height="16" viewBox="0 0 20 16" fill="none" xmlns="http://www.w3.org/2000/svg">
<path d="M9.4 9C9.82435 9 10.2313 8.83143 10.5314 8.53137C10.8314 8.23131 11 7.82435 11 7.4C11 6.97565 10.8314 6.56869 10.5314 6.26863C10.2313 5.96857 9.82435 5.8 9.4 5.8C8.97565 5.8 8.56869 5.96857 8.26863 6.26863C7.96857 6.56869 7.8 6.97565 7.8 7.4C7.8 7.82435 7.96857 8.23131 8.26863 8.53137C8.56869 8.83143 8.97565 9 9.4 9ZM15.5906 12.4594C15.25 12.8688 14.8719 13.25 14.4594 13.5906L16.6 15.7312L17.7312 14.6L15.5906 12.4594ZM9.4 1C11.0974 1 12.7253 1.67428 13.9255 2.87452C15.1257 4.07475 15.8 5.70261 15.8 7.4C15.8 9.09739 15.1257 10.7253 13.9255 11.9255C12.7253 13.1257 11.0974 13.8 9.4 13.8C7.70261 13.8 6.07475 13.1257 4.87452 11.9255C3.67428 10.7253 3 9.09739 3 7.4C3 5.70261 3.67428 4.07475 4.87452 2.87452C6.07475 1.67428 7.70261 1 9.4 1ZM9.4 2.6C8.76966 2.6 8.14548 2.72416 7.56312 2.96538C6.98076 3.2066 6.45161 3.56017 6.00589 4.00589C5.56017 4.45161 5.2066 4.98076 4.96538 5.56312C4.72416 6.14548 4.6 6.76966 4.6 7.4C4.6 8.03034 4.72416 8.65452 4.96538 9.23688C5.2066 9.81924 5.56017 10.3484 6.00589 10.7941C6.45161 11.2398 6.98076 11.5934 7.56312 11.8346C8.14548 12.0758 8.76966 12.2 9.4 12.2C10.673 12.2 11.8939 11.6943 12.7941 10.7941C13.6943 9.89394 14.2 8.67304 14.2 7.4C14.2 6.12696 13.6943 4.90606 12.7941 4.00589C11.8939 3.10571 10.673 2.6 9.4 2.6Z" fill="none" stroke="currentColor" />
</svg>
