<svg width="14" height="16" viewBox="0 0 14 16" fill="none" xmlns="http://www.w3.org/2000/svg">
<path d="M13.1944 14.75C13.1944 13.6646 13.1944 13.1218 13.0605 12.6802C12.7589 11.6859 11.9808 10.9078 10.9864 10.6062C10.5448 10.4722 10.0021 10.4722 8.91666 10.4722H5.02778C3.94234 10.4722 3.39962 10.4722 2.958 10.6062C1.96369 10.9078 1.18559 11.6859 0.883964 12.6802C0.75 13.1218 0.75 13.6646 0.75 14.75M10.4722 4.25C10.4722 6.183 8.90522 7.75 6.97222 7.75C5.03923 7.75 3.47222 6.183 3.47222 4.25C3.47222 2.317 5.03923 0.75 6.97222 0.75C8.90522 0.75 10.4722 2.317 10.4722 4.25Z" fill="none" stroke="currentColor" stroke-width="1.5" stroke-linecap="round" stroke-linejoin="round"/>
</svg>
