<svg width="16" height="16" viewBox="0 0 16 16" fill="none" xmlns="http://www.w3.org/2000/svg">
<path d="M14.83 14.83H2.00155C1.56347 14.83 1.34443 14.83 1.1771 14.7447C1.02992 14.6697 0.910251 14.55 0.835257 14.4029C0.75 14.2355 0.75 14.0165 0.75 13.5784V0.75M14.0477 4.6611L10.9823 7.93286C10.8661 8.05685 10.8081 8.11885 10.738 8.15089C10.6761 8.17917 10.608 8.19084 10.5402 8.18474C10.4635 8.17782 10.3881 8.13867 10.2373 8.06037L7.68932 6.73736C7.53852 6.65906 7.46313 6.61991 7.38638 6.613C7.31864 6.6069 7.25049 6.61856 7.18864 6.64684C7.11856 6.67889 7.06047 6.74089 6.9443 6.86488L3.87888 10.1366" fill="none" stroke="currentColor" stroke-width="1.5" stroke-linecap="round" stroke-linejoin="round"/>
</svg>
