<svg width="12" height="15" viewBox="0 0 12 15" fill="none" xmlns="http://www.w3.org/2000/svg">
<path d="M5.6 10.8C5.19775 10.8001 4.81024 10.6487 4.51462 10.3759C4.219 10.1031 4.03698 9.72896 4.0048 9.328C2.93775 8.9503 2.03844 8.20777 1.46562 7.23149C0.892797 6.25521 0.683298 5.10794 0.874101 3.99221C1.0649 2.87649 1.64374 1.86404 2.50843 1.13359C3.37313 0.403134 4.46808 0.00164836 5.6 5.04752e-08C6.80392 -0.000174442 7.96394 0.45207 8.85005 1.26706C9.73617 2.08205 10.2837 3.20027 10.384 4.4C10.3873 4.45204 10.3798 4.5042 10.3619 4.55318C10.344 4.60216 10.3161 4.64688 10.28 4.68449C10.2439 4.72211 10.2004 4.75181 10.1522 4.77169C10.1039 4.79158 10.0521 4.80122 10 4.8C9.89284 4.79731 9.79051 4.75489 9.71289 4.68096C9.63527 4.60704 9.58791 4.5069 9.58 4.4C9.50875 3.69267 9.25027 3.0171 8.83118 2.44286C8.4121 1.86861 7.84753 1.41643 7.19562 1.13287C6.54371 0.849308 5.82801 0.74461 5.12219 0.829556C4.41637 0.914501 3.74594 1.18602 3.17993 1.61616C2.61391 2.0463 2.17276 2.61952 1.90188 3.2768C1.63101 3.93408 1.5402 4.65168 1.63881 5.35572C1.73741 6.05976 2.02187 6.7248 2.4629 7.28238C2.90393 7.83995 3.48559 8.26991 4.148 8.528C4.26853 8.26756 4.45689 8.04433 4.69334 7.88171C4.92979 7.71908 5.20563 7.62304 5.49195 7.60366C5.77827 7.58427 6.06453 7.64225 6.32075 7.77151C6.57696 7.90078 6.79369 8.09658 6.94823 8.33839C7.10277 8.5802 7.18943 8.85913 7.19912 9.14594C7.20882 9.43276 7.1412 9.7169 7.00334 9.9686C6.86549 10.2203 6.66247 10.4303 6.41557 10.5766C6.16867 10.7228 5.88698 10.8 5.6 10.8ZM1.6072 8.8H1.68C2.15229 9.2633 2.70293 9.63924 3.3064 9.9104C3.48375 10.4956 3.87775 10.991 4.40797 11.2955C4.93819 11.6 5.56465 11.6906 6.15944 11.5489C6.75423 11.4072 7.27251 11.0438 7.60847 10.533C7.94444 10.0221 8.07274 9.40226 7.9672 8.8H9.6C10.0243 8.8 10.4313 8.96857 10.7314 9.26863C11.0314 9.56869 11.2 9.97565 11.2 10.4C11.2 11.7528 10.5336 12.7728 9.492 13.4376C8.4664 14.0912 7.084 14.4 5.6 14.4C4.116 14.4 2.7336 14.0912 1.708 13.4376C0.6664 12.7736 0 11.752 0 10.4C0 9.5096 0.7224 8.8 1.6072 8.8ZM8.8 4.8C8.80017 5.34131 8.66303 5.87382 8.40139 6.3477C8.13975 6.82158 7.76218 7.22135 7.304 7.5096C7.08086 7.28471 6.81541 7.10622 6.52295 6.98443C6.23049 6.86264 5.91681 6.79996 5.6 6.8C5.28319 6.79996 4.96951 6.86264 4.67705 6.98443C4.38459 7.10622 4.11914 7.28471 3.896 7.5096C3.28834 7.12746 2.82681 6.5521 2.5856 5.876C2.46255 5.53062 2.39977 5.16665 2.4 4.8C2.4 3.95131 2.73714 3.13737 3.33726 2.53726C3.93737 1.93714 4.75131 1.6 5.6 1.6C6.44869 1.6 7.26263 1.93714 7.86274 2.53726C8.46286 3.13737 8.8 3.95131 8.8 4.8Z" fill="white"/>
</svg>
